# Blender v2.79 (sub 0) OBJ File: ''
# www.blender.org
mtllib temp.mtl
o Plane_Plane.001
v -2.000000 -9.609174 1.399463
v 2.000000 -9.609174 1.399463
v -2.000000 -9.609174 0.992763
v 2.000000 -9.609174 0.992763
v -2.000000 -10.077723 1.399463
v 2.000000 -10.077723 1.399463
v -2.000000 -9.140625 0.992763
v 2.000000 -9.140625 0.992763
v -2.000000 -9.140625 0.586064
v 2.000000 -9.140625 0.586064
v -2.000000 -9.609174 0.992763
v 2.000000 -9.609174 0.992763
v -2.000000 -8.672076 0.586064
v 2.000000 -8.672076 0.586064
v -2.000000 -8.672076 0.179364
v 2.000000 -8.672076 0.179364
v -2.000000 -9.140625 0.586064
v 2.000000 -9.140625 0.586064
v -2.000000 -8.203527 0.179364
v 2.000000 -8.203527 0.179364
v -2.000000 -8.203527 -0.227336
v 2.000000 -8.203527 -0.227336
v -2.000000 -8.672076 0.179364
v 2.000000 -8.672076 0.179364
v -2.000000 -7.734979 -0.227336
v 2.000000 -7.734979 -0.227336
v -2.000000 -7.734979 -0.634035
v 2.000000 -7.734979 -0.634035
v -2.000000 -8.203527 -0.227336
v 2.000000 -8.203527 -0.227336
v -2.000000 -7.266430 -0.634035
v 2.000000 -7.266430 -0.634035
v -2.000000 -7.266430 -1.040735
v 2.000000 -7.266430 -1.040735
v -2.000000 -7.734979 -0.634035
v 2.000000 -7.734979 -0.634035
v -2.000000 -6.797881 -1.040735
v 2.000000 -6.797881 -1.040735
v -2.000000 -6.797881 -1.447435
v 2.000000 -6.797881 -1.447435
v -2.000000 -7.266430 -1.040735
v 2.000000 -7.266430 -1.040735
v -2.000000 -6.329332 -1.447435
v 2.000000 -6.329332 -1.447435
v -2.000000 -6.329332 -1.854134
v 2.000000 -6.329332 -1.854134
v -2.000000 -6.797881 -1.447435
v 2.000000 -6.797881 -1.447435
v -2.000000 -5.860784 -1.854134
v 2.000000 -5.860784 -1.854134
v -2.000000 -5.860784 -2.260834
v 2.000000 -5.860784 -2.260834
v -2.000000 -6.329332 -1.854134
v 2.000000 -6.329332 -1.854134
v -2.000000 -5.392235 -2.260834
v 2.000000 -5.392235 -2.260834
v -2.000000 -5.392235 -2.667534
v 2.000000 -5.392235 -2.667534
v -2.000000 -5.860784 -2.260834
v 2.000000 -5.860784 -2.260834
v -2.000000 -4.923686 -2.667534
v 2.000000 -4.923686 -2.667534
v -2.000000 -4.923686 -3.074233
v 2.000000 -4.923686 -3.074233
v -2.000000 -5.392235 -2.667534
v 2.000000 -5.392235 -2.667534
vn 0.0000 1.0000 0.0000
vn 0.0000 0.0000 1.0000
usemtl None
s off
f 1//1 2//1 4//1 3//1
f 2//2 1//2 5//2 6//2
f 7//1 8//1 10//1 9//1
f 8//2 7//2 11//2 12//2
f 13//1 14//1 16//1 15//1
f 14//2 13//2 17//2 18//2
f 19//1 20//1 22//1 21//1
f 20//2 19//2 23//2 24//2
f 25//1 26//1 28//1 27//1
f 26//2 25//2 29//2 30//2
f 31//1 32//1 34//1 33//1
f 32//2 31//2 35//2 36//2
f 37//1 38//1 40//1 39//1
f 38//2 37//2 41//2 42//2
f 43//1 44//1 46//1 45//1
f 44//2 43//2 47//2 48//2
f 49//1 50//1 52//1 51//1
f 50//2 49//2 53//2 54//2
f 55//1 56//1 58//1 57//1
f 56//2 55//2 59//2 60//2
f 61//1 62//1 64//1 63//1
f 62//2 61//2 65//2 66//2
o Cube.005_Cube.008
v -10.000000 -5.100000 -2.985459
v -10.000000 -4.900000 -2.985459
v -10.000000 -5.100000 -9.985458
v -10.000000 -4.900000 -9.985458
v 10.000000 -5.100000 -2.985459
v 10.000000 -4.900000 -2.985459
v 10.000000 -5.100000 -9.985458
v 10.000000 -4.900000 -9.985458
vn -1.0000 0.0000 0.0000
vn 0.0000 0.0000 -1.0000
vn 1.0000 0.0000 0.0000
vn 0.0000 0.0000 1.0000
vn 0.0000 -1.0000 0.0000
vn 0.0000 1.0000 0.0000
usemtl None
s off
f 67//3 68//3 70//3 69//3
f 69//4 70//4 74//4 73//4
f 73//5 74//5 72//5 71//5
f 71//6 72//6 68//6 67//6
f 69//7 73//7 71//7 67//7
f 74//8 70//8 68//8 72//8
o Cube.006
v 10.000005 10.000000 -9.999994
v 9.999993 10.000000 10.000006
v -10.000004 10.000000 9.999996
v -9.999999 10.000000 -10.000000
vn 0.0000 1.0000 -0.0000
usemtl Material
s off
f 75//9 78//9 77//9 76//9
o Cube.004
v 10.000000 -10.000000 10.000000
v -10.000001 -10.000000 9.999998
v 9.999993 10.000000 10.000006
v -10.000004 10.000000 9.999996
vn -0.0000 -0.0000 1.0000
usemtl Material
s off
f 79//10 81//10 82//10 80//10
o Cube.003
v -10.000001 -10.000000 9.999998
v -9.999996 -10.000000 -10.000004
v -10.000004 10.000000 9.999996
v -9.999999 10.000000 -10.000000
vn -1.0000 -0.0000 -0.0000
usemtl Material
s off
f 83//11 85//11 86//11 84//11
o Cube.002
v 10.000000 -10.000000 -9.999999
v 10.000000 -10.000000 10.000000
v 10.000005 10.000000 -9.999994
v 9.999993 10.000000 10.000006
vn 1.0000 0.0000 0.0000
usemtl Material
s off
f 87//12 89//12 90//12 88//12
o Cube.001
v 10.000000 -10.000000 -9.999999
v -9.999996 -10.000000 -10.000004
v 10.000005 10.000000 -9.999994
v -9.999999 10.000000 -10.000000
vn 0.0000 0.0000 -1.0000
usemtl Material
s off
f 93//13 91//13 92//13 94//13
o Cube
v 10.000000 -10.000000 -9.999999
v 10.000000 -10.000000 10.000000
v -10.000001 -10.000000 9.999998
v -9.999996 -10.000000 -10.000004
vn 0.0000 -1.0000 0.0000
usemtl Material
s off
f 95//14 96//14 97//14 98//14
